<svg width="334" height="271" viewBox="0 0 334 271" fill="none" xmlns="http://www.w3.org/2000/svg">
<path d="M3 93.8223V265C3 266.657 4.34315 268 6 268H269.951C270.938 268 271.862 267.515 272.422 266.702L330.471 182.435C330.815 181.935 331 181.341 331 180.733V11.9998C331 10.3429 329.657 8.99976 328 8.99976H64.0229C63.0504 8.99976 62.1383 9.47114 61.5757 10.2644L3.55285 92.087C3.19319 92.5941 3 93.2005 3 93.8223Z" stroke="url(#paint0_linear_164_1024)" stroke-width="5"/>
<path d="M238.186 43.5331L217.461 8.99976H330.098V43.5331H238.186Z" fill="#0761DC"/>
<path d="M271.384 39.54C269.104 39.54 267.112 39.024 265.408 37.992C263.728 36.936 262.432 35.424 261.52 33.456C260.608 31.464 260.152 29.124 260.152 26.436C260.152 23.724 260.596 21.384 261.484 19.416C262.396 17.448 263.692 15.936 265.372 14.88C267.076 13.824 269.08 13.296 271.384 13.296C273.688 13.296 275.68 13.824 277.36 14.88C279.04 15.936 280.324 17.448 281.212 19.416C282.124 21.384 282.58 23.724 282.58 26.436C282.58 29.124 282.124 31.464 281.212 33.456C280.3 35.424 279.004 36.936 277.324 37.992C275.644 39.024 273.664 39.54 271.384 39.54ZM271.384 34.5C273.184 34.5 274.576 33.792 275.56 32.376C276.544 30.96 277.036 29.004 277.036 26.508C277.036 23.988 276.544 22.008 275.56 20.568C274.6 19.128 273.208 18.408 271.384 18.408C269.56 18.408 268.156 19.128 267.172 20.568C266.212 22.008 265.732 23.988 265.732 26.508C265.732 29.004 266.224 30.96 267.208 32.376C268.192 33.792 269.584 34.5 271.384 34.5ZM290.157 19.812L284.937 23.592V18.336L291.057 13.836H295.629V39H290.157V19.812Z" fill="white"/>
<defs>
<linearGradient id="paint0_linear_164_1024" x1="167" y1="8.99976" x2="167" y2="268" gradientUnits="userSpaceOnUse">
<stop offset="0.0885417" stop-color="#0761DC"/>
<stop offset="1" stop-color="#009FF9"/>
</linearGradient>
</defs>
</svg>
