<svg width="334" height="271" viewBox="0 0 334 271" fill="none" xmlns="http://www.w3.org/2000/svg">
<path d="M3 93.8223V265C3 266.657 4.34315 268 6 268H269.951C270.938 268 271.862 267.515 272.422 266.702L330.471 182.435C330.815 181.935 331 181.341 331 180.733V11.9998C331 10.3429 329.657 8.99976 328 8.99976H64.0229C63.0504 8.99976 62.1383 9.47114 61.5757 10.2644L3.55285 92.087C3.19319 92.5941 3 93.2005 3 93.8223Z" stroke="url(#paint0_linear_164_1054)" stroke-width="5"/>
<path d="M238.186 43.5331L217.461 8.99976H330.098V43.5331H238.186Z" fill="#9557F6"/>
<path d="M275.384 39.54C273.104 39.54 271.112 39.024 269.408 37.992C267.728 36.936 266.432 35.424 265.52 33.456C264.608 31.464 264.152 29.124 264.152 26.436C264.152 23.724 264.596 21.384 265.484 19.416C266.396 17.448 267.692 15.936 269.372 14.88C271.076 13.824 273.08 13.296 275.384 13.296C277.688 13.296 279.68 13.824 281.36 14.88C283.04 15.936 284.324 17.448 285.212 19.416C286.124 21.384 286.58 23.724 286.58 26.436C286.58 29.124 286.124 31.464 285.212 33.456C284.3 35.424 283.004 36.936 281.324 37.992C279.644 39.024 277.664 39.54 275.384 39.54ZM275.384 34.5C277.184 34.5 278.576 33.792 279.56 32.376C280.544 30.96 281.036 29.004 281.036 26.508C281.036 23.988 280.544 22.008 279.56 20.568C278.6 19.128 277.208 18.408 275.384 18.408C273.56 18.408 272.156 19.128 271.172 20.568C270.212 22.008 269.732 23.988 269.732 26.508C269.732 29.004 270.224 30.96 271.208 32.376C272.192 33.792 273.584 34.5 275.384 34.5ZM297.037 39.54C295.477 39.54 293.989 39.408 292.573 39.144C291.157 38.904 289.945 38.532 288.937 38.028V33.78C291.265 34.836 293.701 35.364 296.245 35.364C298.117 35.364 299.509 35.052 300.421 34.428C301.357 33.804 301.825 32.916 301.825 31.764C301.825 30.54 301.369 29.676 300.457 29.172C299.545 28.644 298.141 28.38 296.245 28.38H292.933V24.204H296.101C297.661 24.204 298.873 23.928 299.737 23.376C300.625 22.8 301.069 21.96 301.069 20.856C301.069 19.752 300.673 18.912 299.881 18.336C299.089 17.76 297.985 17.472 296.569 17.472C295.225 17.472 293.977 17.64 292.825 17.976C291.697 18.288 290.593 18.792 289.513 19.488V15.168C290.593 14.568 291.805 14.112 293.149 13.8C294.493 13.464 295.885 13.296 297.325 13.296C300.469 13.296 302.809 13.944 304.345 15.24C305.881 16.512 306.649 18.312 306.649 20.64C306.649 21.792 306.349 22.872 305.749 23.88C305.173 24.864 304.309 25.656 303.157 26.256C305.965 27.288 307.369 29.208 307.369 32.016C307.369 37.032 303.925 39.54 297.037 39.54Z" fill="white"/>
<defs>
<linearGradient id="paint0_linear_164_1054" x1="167" y1="8.99976" x2="167" y2="268" gradientUnits="userSpaceOnUse">
<stop offset="0.046875" stop-color="#9557F6"/>
<stop offset="0.9375" stop-color="#C644CB"/>
</linearGradient>
</defs>
</svg>
