<svg width="334" height="271" viewBox="0 0 334 271" fill="none" xmlns="http://www.w3.org/2000/svg">
<path d="M3 93.8223V265C3 266.657 4.34315 268 6 268H269.951C270.938 268 271.862 267.515 272.422 266.702L330.471 182.435C330.815 181.935 331 181.341 331 180.733V11.9998C331 10.3429 329.657 8.99976 328 8.99976H64.0229C63.0504 8.99976 62.1383 9.47114 61.5757 10.2644L3.55285 92.087C3.19319 92.5941 3 93.2005 3 93.8223Z" stroke="url(#paint0_linear_164_1039)" stroke-width="5"/>
<path d="M238.186 43.5331L217.461 8.99976H330.098V43.5331H238.186Z" fill="#FFB156"/>
<path d="M271.384 39.54C269.104 39.54 267.112 39.024 265.408 37.992C263.728 36.936 262.432 35.424 261.52 33.456C260.608 31.464 260.152 29.124 260.152 26.436C260.152 23.724 260.596 21.384 261.484 19.416C262.396 17.448 263.692 15.936 265.372 14.88C267.076 13.824 269.08 13.296 271.384 13.296C273.688 13.296 275.68 13.824 277.36 14.88C279.04 15.936 280.324 17.448 281.212 19.416C282.124 21.384 282.58 23.724 282.58 26.436C282.58 29.124 282.124 31.464 281.212 33.456C280.3 35.424 279.004 36.936 277.324 37.992C275.644 39.024 273.664 39.54 271.384 39.54ZM271.384 34.5C273.184 34.5 274.576 33.792 275.56 32.376C276.544 30.96 277.036 29.004 277.036 26.508C277.036 23.988 276.544 22.008 275.56 20.568C274.6 19.128 273.208 18.408 271.384 18.408C269.56 18.408 268.156 19.128 267.172 20.568C266.212 22.008 265.732 23.988 265.732 26.508C265.732 29.004 266.224 30.96 267.208 32.376C268.192 33.792 269.584 34.5 271.384 34.5ZM284.937 35.724L289.437 31.62C290.349 30.804 291.033 30.204 291.489 29.82C292.857 28.62 293.901 27.66 294.621 26.94C295.341 26.196 295.929 25.428 296.385 24.636C296.841 23.844 297.069 23.028 297.069 22.188C297.069 21.012 296.721 20.088 296.025 19.416C295.353 18.744 294.297 18.408 292.857 18.408C291.657 18.408 290.457 18.624 289.257 19.056C288.057 19.464 286.953 20.052 285.945 20.82V15.6C287.001 14.856 288.201 14.292 289.545 13.908C290.913 13.5 292.389 13.296 293.973 13.296C295.797 13.296 297.369 13.632 298.689 14.304C300.009 14.976 301.017 15.924 301.713 17.148C302.409 18.372 302.757 19.776 302.757 21.36C302.757 23.136 302.301 24.72 301.389 26.112C300.501 27.48 299.049 29.1 297.033 30.972L293.181 34.5H303.621V39H284.937V35.724Z" fill="white"/>
<defs>
<linearGradient id="paint0_linear_164_1039" x1="167" y1="8.99976" x2="167" y2="268" gradientUnits="userSpaceOnUse">
<stop stop-color="#FFB156"/>
<stop offset="1" stop-color="#CA4318"/>
</linearGradient>
</defs>
</svg>
