<svg width="200" height="200" viewBox="0 0 200 200" fill="none" xmlns="http://www.w3.org/2000/svg">
<path d="M145.475 25L175 25.025L175.017 54.3833L129.459 99.9333L153.025 123.508L164.817 111.725L176.6 123.508L155.984 144.133L179.55 167.708L167.767 179.492L144.192 155.917L123.567 176.542L111.784 164.758L123.567 152.967L99.9919 129.4L76.4252 152.967L88.2169 164.758L76.4335 176.542L55.8085 155.917L32.2335 179.492L20.4502 167.708L44.0252 144.125L23.4002 123.508L35.1835 111.725L46.9669 123.5L70.5252 99.9333L25.0252 54.4333L25.0002 25L54.5502 25.025L99.9919 70.475L145.475 25ZM82.3085 111.717L58.7502 135.283L64.6502 141.175L88.2085 117.608L82.3169 111.717H82.3085ZM158.342 41.675H152.367L111.784 82.25L117.667 88.1417L158.342 47.4833V41.675ZM41.6752 41.675V47.5083L135.35 141.183L141.242 135.292L47.6335 41.6833L41.6752 41.675Z" fill="white"/>
</svg>
