<svg width="19" height="20" viewBox="0 0 19 20" fill="none" xmlns="http://www.w3.org/2000/svg">
<path fill-rule="evenodd" clip-rule="evenodd" d="M9.49999 19.5C14.7467 19.5 19 15.2467 19 9.99999C19 4.75329 14.7467 0.5 9.49999 0.5C4.25329 0.5 0 4.75329 0 9.99999C0 15.2467 4.25329 19.5 9.49999 19.5ZM11.5785 5.78994L12.2006 4.6149C10.977 3.96719 9.5668 3.76375 8.21011 4.03925C6.85342 4.31474 5.63422 5.05213 4.76026 6.12577C3.88629 7.19941 3.41164 8.54287 3.41716 9.92724C3.42269 11.3116 3.90805 12.6512 4.79056 13.7179C5.67307 14.7845 6.89811 15.5121 8.25696 15.7768C9.61581 16.0414 11.0244 15.8268 12.2427 15.1693C13.461 14.5118 14.4136 13.4523 14.9383 12.1712C15.463 10.8901 15.5272 9.46668 15.1201 8.14352L13.8491 8.53461C14.1658 9.56375 14.1157 10.6708 13.7076 11.6672C13.2994 12.6636 12.5585 13.4876 11.6109 13.9989C10.6633 14.5102 9.5677 14.6772 8.51083 14.4713C7.45396 14.2654 6.50119 13.6994 5.81484 12.8697C5.12849 12.0401 4.75104 10.9982 4.7468 9.92142C4.74256 8.84469 5.11179 7.7998 5.79158 6.96479C6.47136 6.12977 7.41965 5.55629 8.47486 5.34207C9.53008 5.12784 10.6269 5.28612 11.5785 5.78994Z" fill="#FF7A00"/>
</svg>
