<svg width="22" height="23" viewBox="0 0 22 23" fill="none" xmlns="http://www.w3.org/2000/svg">
<path d="M10.9994 2.83057C15.9421 2.83057 20.0543 6.49133 20.9169 11.322C20.0552 16.1527 15.9421 19.8135 10.9994 19.8135C6.05678 19.8135 1.94461 16.1527 1.08203 11.322C1.9437 6.49133 6.05678 2.83057 10.9994 2.83057ZM10.9994 17.9265C12.869 17.9261 14.683 17.2725 16.1446 16.0727C17.6062 14.8729 18.6288 13.198 19.045 11.322C18.6272 9.44759 17.604 7.77449 16.1425 6.57627C14.6811 5.37805 12.8679 4.7256 10.9994 4.7256C9.131 4.7256 7.31783 5.37805 5.85638 6.57627C4.39492 7.77449 3.37165 9.44759 2.95386 11.322C3.37012 13.198 4.39273 14.8729 5.85433 16.0727C7.31593 17.2725 9.12994 17.9261 10.9994 17.9265ZM10.9994 15.5678C9.90543 15.5678 8.85622 15.1204 8.08263 14.3242C7.30905 13.528 6.87445 12.4481 6.87445 11.322C6.87445 10.196 7.30905 9.11607 8.08263 8.31984C8.85622 7.52361 9.90543 7.0763 10.9994 7.0763C12.0935 7.0763 13.1427 7.52361 13.9163 8.31984C14.6899 9.11607 15.1244 10.196 15.1244 11.322C15.1244 12.4481 14.6899 13.528 13.9163 14.3242C13.1427 15.1204 12.0935 15.5678 10.9994 15.5678ZM10.9994 13.6808C11.6072 13.6808 12.1901 13.4323 12.6199 12.9899C13.0497 12.5476 13.2911 11.9476 13.2911 11.322C13.2911 10.6965 13.0497 10.0965 12.6199 9.65415C12.1901 9.2118 11.6072 8.96329 10.9994 8.96329C10.3917 8.96329 9.80877 9.2118 9.379 9.65415C8.94922 10.0965 8.70778 10.6965 8.70778 11.322C8.70778 11.9476 8.94922 12.5476 9.379 12.9899C9.80877 13.4323 10.3917 13.6808 10.9994 13.6808Z" fill="#E4E4E4"/>
</svg>
