<svg width="13" height="24" viewBox="0 0 13 24" fill="none" xmlns="http://www.w3.org/2000/svg">
<path d="M9.7486 13.3633C10.6236 13.3633 11.366 12.7211 11.4919 11.8552L11.5961 11.1391C11.7554 10.0448 10.9068 9.06384 9.80097 9.06384C8.79908 9.06384 7.98689 8.25165 7.98689 7.24976V6.27379C7.98689 5.09754 8.53325 3.95099 10.285 3.95099C11.267 3.95099 12.063 3.15491 12.063 2.1729V1.9573C12.063 0.992469 11.3716 0.163746 10.4109 0.0753215C9.94322 0.0322818 9.42104 0 8.90673 0C5.68576 0 3.58038 2.05925 3.58038 5.78705V7.27365C3.58038 8.26234 2.77888 9.06384 1.79019 9.06384C0.801495 9.06384 0 9.86533 0 10.854V11.5731C0 12.5618 0.801495 13.3633 1.79019 13.3633C2.77888 13.3633 3.58038 14.1648 3.58038 15.1535V21.5537C3.58038 22.7705 4.56681 23.757 5.78364 23.757C7.00046 23.757 7.98689 22.7705 7.98689 21.5537V15.125C7.98689 14.152 8.77564 13.3633 9.7486 13.3633Z" fill="#3B5999"/>
</svg>
