<svg width="18" className="flag" height="20" viewBox="0 0 18 20" fill="none" xmlns="http://www.w3.org/2000/svg">
<path d="M2 13.4998V19.4998H0V0.499756H9.382C9.56766 0.499855 9.74963 0.551639 9.90753 0.649308C10.0654 0.746977 10.193 0.886675 10.276 1.05276L11 2.49976H17C17.2652 2.49976 17.5196 2.60511 17.7071 2.79265C17.8946 2.98019 18 3.23454 18 3.49976V14.4998C18 14.765 17.8946 15.0193 17.7071 15.2069C17.5196 15.3944 17.2652 15.4998 17 15.4998H10.618C10.4323 15.4997 10.2504 15.4479 10.0925 15.3502C9.93458 15.2525 9.80699 15.1128 9.724 14.9468L9 13.4998H2ZM2 2.49976V11.4998H10.236L11.236 13.4998H16V4.49976H9.764L8.764 2.49976H2Z" fill="#6BE795"/>
</svg>
