<svg width="23" height="24" viewBox="0 0 23 24" fill="none" xmlns="http://www.w3.org/2000/svg">
<path d="M-nan -nanL22.304 9.55208H21.4216C21.408 9.55208 21.3969 9.54105 21.3969 9.52743V9.52743C21.3969 9.51382 21.3859 9.50278 21.3723 9.50278H13.6372C12.3252 9.50278 11.2615 10.5664 11.2615 11.8785V11.8785C11.2615 13.1905 12.3252 14.2542 13.6372 14.2542H13.9239C15.7435 14.2542 16.9768 16.1042 15.6212 17.3179C14.4459 18.3703 12.925 19.0056 11.2615 19.0056C7.53003 19.0056 4.50462 15.8144 4.50462 11.8785C4.50462 7.94255 7.53003 4.75139 11.2615 4.75139C12.1638 4.75139 13.0235 4.93948 13.8091 5.27953C14.9918 5.79144 16.4605 5.80075 17.3472 4.86555V4.86555C18.2257 3.93891 18.2109 2.45338 17.1405 1.75723C15.4301 0.644912 13.4188 0 11.2615 0C5.04235 0 0 5.31859 0 11.8785C0 18.4384 5.04235 23.757 11.2615 23.757C17.4807 23.757 22.5231 18.4384 22.5231 11.8785C22.5231 11.082 22.4454 10.3046 22.304 9.55208L-nan -nanL-nan -nanZ" fill="#FFC107"/>
<path d="M-nan -nanL1.29883 6.34964L2.87612 7.56976C3.93351 8.3877 5.49543 7.92652 6.39573 6.93831C7.62371 5.59041 9.34901 4.75139 11.2619 4.75139C12.1642 4.75139 13.0239 4.93948 13.8095 5.27953C14.9921 5.79144 16.4609 5.80075 17.3475 4.86555V4.86555C18.226 3.93891 18.2113 2.45338 17.1408 1.75723C15.4305 0.644912 13.4192 0 11.2619 0C6.93635 0 3.18514 2.57585 1.29883 6.34964L-nan -nanL-nan -nanZ" fill="#FF3D00"/>
<path d="M-nan -nanL11.2619 23.757C13.2471 23.757 15.1085 23.2101 16.7257 22.2558C17.9439 21.537 17.9095 19.8676 16.8542 18.9257V18.9257C15.9722 18.1384 14.6628 18.1555 13.5592 18.5796C12.8427 18.8549 12.0695 19.0056 11.2619 19.0056C9.38179 19.0056 7.68377 18.1939 6.46091 16.8855C5.45105 15.805 3.68961 15.277 2.54187 16.2097V16.2097C1.77691 16.8314 1.52377 17.9103 2.07267 18.729C4.11067 21.769 7.46342 23.757 11.2619 23.757L-nan -nanL-nan -nanZ" fill="#4CAF50"/>
<path d="M-nan -nanL22.3042 9.5521H21.4218C21.4081 9.5521 21.3971 9.54107 21.3971 9.52746V9.52746C21.3971 9.51384 21.3861 9.50281 21.3725 9.50281H13.6374C12.3254 9.50281 11.2617 10.5664 11.2617 11.8785V11.8785C11.2617 13.1906 12.3254 14.2542 13.6374 14.2542H13.9241C15.7437 14.2542 16.9748 16.1028 15.618 17.3153C15.5225 17.4006 15.4248 17.4832 15.3249 17.563V17.563C15.3257 17.5621 15.3273 17.5624 15.3281 17.5631L16.9752 19.0333C17.9657 19.9173 19.6554 19.9457 20.404 18.8493C21.4121 17.3728 22.5233 15.0254 22.5233 11.8785C22.5233 11.0821 22.4456 10.3046 22.3042 9.5521L-nan -nanL-nan -nanZ" fill="#1976D2"/>
</svg>
