<svg width="24" height="25" viewBox="0 0 24 25" fill="none" xmlns="http://www.w3.org/2000/svg">
<path d="M19.938 8.50002H21C21.5304 8.50002 22.0391 8.71074 22.4142 9.08581C22.7893 9.46088 23 9.96959 23 10.5V14.5C23 15.0305 22.7893 15.5392 22.4142 15.9142C22.0391 16.2893 21.5304 16.5 21 16.5H19.938C19.6942 18.4333 18.7533 20.2112 17.2917 21.5C15.8302 22.7888 13.9486 23.5 12 23.5V21.5C13.5913 21.5 15.1174 20.8679 16.2426 19.7427C17.3679 18.6174 18 17.0913 18 15.5V9.50002C18 7.90872 17.3679 6.3826 16.2426 5.25738C15.1174 4.13216 13.5913 3.50002 12 3.50002C10.4087 3.50002 8.88258 4.13216 7.75736 5.25738C6.63214 6.3826 6 7.90872 6 9.50002V16.5H3C2.46957 16.5 1.96086 16.2893 1.58579 15.9142C1.21071 15.5392 1 15.0305 1 14.5V10.5C1 9.96959 1.21071 9.46088 1.58579 9.08581C1.96086 8.71074 2.46957 8.50002 3 8.50002H4.062C4.30603 6.56692 5.24708 4.7893 6.70857 3.5007C8.17007 2.2121 10.0516 1.5011 12 1.5011C13.9484 1.5011 15.8299 2.2121 17.2914 3.5007C18.7529 4.7893 19.694 6.56692 19.938 8.50002ZM3 10.5V14.5H4V10.5H3ZM20 10.5V14.5H21V10.5H20ZM7.76 16.285L8.82 14.589C9.77308 15.1861 10.8754 15.5018 12 15.5C13.1246 15.5018 14.2269 15.1861 15.18 14.589L16.24 16.285C14.9693 17.0812 13.4995 17.5023 12 17.5C10.5005 17.5023 9.03074 17.0812 7.76 16.285Z" fill="white"/>
</svg>
