<svg width="24" height="24" viewBox="0 0 24 24" fill="none" xmlns="http://www.w3.org/2000/svg">
<path d="M10.3107 11.5657L18.2507 3.62573L20.3717 5.74673L18.9577 7.16073L21.0787 9.28173L17.5437 12.8177L15.4227 10.6967L12.4327 13.6867C12.9832 14.746 13.1368 15.9673 12.8655 17.1299C12.5943 18.2925 11.9162 19.3198 10.9538 20.0261C9.99131 20.7324 8.80797 21.0712 7.61753 20.9813C6.4271 20.8914 5.30809 20.3786 4.46267 19.5357C3.61682 18.6912 3.10148 17.5717 3.01003 16.3799C2.91857 15.1882 3.25706 14.0031 3.96415 13.0395C4.67124 12.0758 5.70014 11.3973 6.86441 11.127C8.02868 10.8566 9.25129 11.0123 10.3107 11.5657ZM9.41167 17.4137C9.60269 17.2292 9.75505 17.0085 9.85987 16.7645C9.96469 16.5205 10.0199 16.2581 10.0222 15.9925C10.0245 15.727 9.97387 15.4636 9.87331 15.2178C9.77275 14.972 9.62424 14.7487 9.43646 14.5609C9.24867 14.3732 9.02537 14.2247 8.77958 14.1241C8.53378 14.0235 8.27042 13.9729 8.00487 13.9752C7.73931 13.9775 7.47687 14.0327 7.23286 14.1375C6.98885 14.2423 6.76816 14.3947 6.58367 14.5857C6.21935 14.9629 6.01776 15.4681 6.02232 15.9925C6.02688 16.5169 6.23721 17.0186 6.60803 17.3894C6.97885 17.7602 7.48047 17.9705 8.00487 17.9751C8.52926 17.9796 9.03446 17.778 9.41167 17.4137Z" fill="white"/>
</svg>
