<svg width="27" height="19" viewBox="0 0 27 19" fill="none" xmlns="http://www.w3.org/2000/svg">
<path d="M13.7703 6.61686H13.8943C14.5012 6.61686 14.9949 6.15165 14.9949 5.57987V4.20048H12.6697V5.57987C12.6697 6.15165 13.1634 6.61686 13.7703 6.61686Z" fill="#E4E4E4"/>
<path d="M24.5561 10.7232H3.09565L3.09819 10.7263V12.3817H24.5394V10.7436L24.5561 10.7232Z" fill="#E4E4E4"/>
<path d="M25.7394 9.27836L26.7154 8.08666L25.791 4.42139L13.8323 0L1.87735 4.42001L0.929688 8.04512L1.92712 9.27836H25.7394ZM16.5283 5.57987C16.5283 6.94836 15.3467 8.06171 13.8943 8.06171H13.7703C12.3178 8.06171 11.1362 6.94836 11.1362 5.57987V2.75563H16.5283L16.5283 5.57987Z" fill="#E4E4E4"/>
<path d="M1.7711 13.8265C1.65019 14.1201 1.62878 14.4406 1.71589 14.7492C2.10644 16.1329 3.10001 17.3248 4.51361 18.1054C5.92696 18.8859 7.62029 19.1689 9.28149 18.9022L12.0056 18.465C13.2118 18.2714 14.435 18.2714 15.6412 18.465L18.3653 18.9022C18.7731 18.9677 19.1826 19 19.5897 19C20.8408 19 22.0668 18.6943 23.1332 18.1054C24.5468 17.3249 25.5404 16.1329 25.931 14.7492C26.0181 14.4406 25.9967 14.1201 25.8758 13.8265H1.7711Z" fill="#E4E4E4"/>
</svg>
