<svg width="160" height="39" viewBox="0 0 160 39" fill="none" xmlns="http://www.w3.org/2000/svg">
<path d="M34.485 37C37.6854 37.0132 39.4564 31.3433 42.4186 18.5051C42.563 17.8792 42.0873 17.2817 41.445 17.2817H24.4356C23.9776 17.2817 23.5781 17.5928 23.466 18.0369L22.104 23.4313C21.9445 24.063 22.422 24.6761 23.0736 24.6761H29.5439C30.1708 24.6761 30.6431 25.2462 30.5265 25.8621L30.1584 27.8058C30.069 28.2779 29.6564 28.6197 29.1759 28.6197H14.0786C13.4376 28.6197 12.9622 28.0253 13.103 27.4L16.7599 11.1606C16.8626 10.7044 17.2678 10.3803 17.7355 10.3803H77.2386C77.8971 10.3803 78.3759 11.0057 78.2039 11.6414L76.878 16.5428C76.76 16.9789 76.3644 17.2817 75.9127 17.2817H50.2043C49.7441 17.2817 49.3433 17.5958 49.2333 18.0427L44.8715 35.761C44.7164 36.3912 45.1935 37 45.8425 37H52.3541C52.822 37 53.2273 36.6755 53.3298 36.219L55.9663 24.4712C56.0688 24.0146 56.4742 23.6901 56.9421 23.6901H81.4261C81.7292 23.6901 82.0173 23.5529 82.2029 23.3132C85.8041 18.6624 87.2159 13.6479 88.8262 3.14864C88.9189 2.54459 88.4507 2 87.8396 2H11.867C11.5343 2 11.2227 2.16462 11.041 2.4433C8.06969 6.99813 3.24208 16.6291 2.06066 35.9395C2.02566 36.5116 2.4815 37 3.05468 37H34.485Z" fill="#0761DC" stroke="#0547A3"/>
<g filter="url(#filter0_f_361_6790)">
<path d="M34.485 37C37.6854 37.0132 39.4564 31.3433 42.4186 18.5051C42.563 17.8792 42.0873 17.2817 41.445 17.2817H24.4356C23.9776 17.2817 23.5781 17.5928 23.466 18.0369L22.104 23.4313C21.9445 24.063 22.422 24.6761 23.0736 24.6761H29.5439C30.1708 24.6761 30.6431 25.2462 30.5265 25.8621L30.1584 27.8058C30.069 28.2779 29.6564 28.6197 29.1759 28.6197H14.0786C13.4376 28.6197 12.9622 28.0253 13.103 27.4L16.7599 11.1606C16.8626 10.7044 17.2678 10.3803 17.7355 10.3803H77.2386C77.8971 10.3803 78.3759 11.0057 78.2039 11.6414L76.878 16.5428C76.76 16.9789 76.3644 17.2817 75.9127 17.2817H50.2043C49.7441 17.2817 49.3433 17.5958 49.2333 18.0427L44.8715 35.761C44.7164 36.3912 45.1935 37 45.8425 37H52.3541C52.822 37 53.2273 36.6755 53.3298 36.219L55.9663 24.4712C56.0688 24.0146 56.4742 23.6901 56.9421 23.6901H81.4261C81.7292 23.6901 82.0173 23.5529 82.2029 23.3132C85.8041 18.6624 87.2159 13.6479 88.8262 3.14864C88.9189 2.54459 88.4507 2 87.8396 2H11.867C11.5343 2 11.2227 2.16462 11.041 2.4433C8.06969 6.99813 3.24208 16.6291 2.06066 35.9395C2.02566 36.5116 2.4815 37 3.05468 37H34.485Z" fill="#0761DC"/>
<path d="M34.485 37C37.6854 37.0132 39.4564 31.3433 42.4186 18.5051C42.563 17.8792 42.0873 17.2817 41.445 17.2817H24.4356C23.9776 17.2817 23.5781 17.5928 23.466 18.0369L22.104 23.4313C21.9445 24.063 22.422 24.6761 23.0736 24.6761H29.5439C30.1708 24.6761 30.6431 25.2462 30.5265 25.8621L30.1584 27.8058C30.069 28.2779 29.6564 28.6197 29.1759 28.6197H14.0786C13.4376 28.6197 12.9622 28.0253 13.103 27.4L16.7599 11.1606C16.8626 10.7044 17.2678 10.3803 17.7355 10.3803H77.2386C77.8971 10.3803 78.3759 11.0057 78.2039 11.6414L76.878 16.5428C76.76 16.9789 76.3644 17.2817 75.9127 17.2817H50.2043C49.7441 17.2817 49.3433 17.5958 49.2333 18.0427L44.8715 35.761C44.7164 36.3912 45.1935 37 45.8425 37H52.3541C52.822 37 53.2273 36.6755 53.3298 36.219L55.9663 24.4712C56.0688 24.0146 56.4742 23.6901 56.9421 23.6901H81.4261C81.7292 23.6901 82.0173 23.5529 82.2029 23.3132C85.8041 18.6624 87.2159 13.6479 88.8262 3.14864C88.9189 2.54459 88.4507 2 87.8396 2H11.867C11.5343 2 11.2227 2.16462 11.041 2.4433C8.06969 6.99813 3.24208 16.6291 2.06066 35.9395C2.02566 36.5116 2.4815 37 3.05468 37H34.485Z" stroke="#0547A3"/>
</g>
<g filter="url(#filter1_f_361_6790)">
<path d="M34.485 37C37.6854 37.0132 39.4564 31.3433 42.4186 18.5051C42.563 17.8792 42.0873 17.2817 41.445 17.2817H24.4356C23.9776 17.2817 23.5781 17.5928 23.466 18.0369L22.104 23.4313C21.9445 24.063 22.422 24.6761 23.0736 24.6761H29.5439C30.1708 24.6761 30.6431 25.2462 30.5265 25.8621L30.1584 27.8058C30.069 28.2779 29.6564 28.6197 29.1759 28.6197H14.0786C13.4376 28.6197 12.9622 28.0253 13.103 27.4L16.7599 11.1606C16.8626 10.7044 17.2678 10.3803 17.7355 10.3803H77.2386C77.8971 10.3803 78.3759 11.0057 78.2039 11.6414L76.878 16.5428C76.76 16.9789 76.3644 17.2817 75.9127 17.2817H50.2043C49.7441 17.2817 49.3433 17.5958 49.2333 18.0427L44.8715 35.761C44.7164 36.3912 45.1935 37 45.8425 37H52.3541C52.822 37 53.2273 36.6755 53.3298 36.219L55.9663 24.4712C56.0688 24.0146 56.4742 23.6901 56.9421 23.6901H81.4261C81.7292 23.6901 82.0173 23.5529 82.2029 23.3132C85.8041 18.6624 87.2159 13.6479 88.8262 3.14864C88.9189 2.54459 88.4507 2 87.8396 2H11.867C11.5343 2 11.2227 2.16462 11.041 2.4433C8.06969 6.99813 3.24208 16.6291 2.06066 35.9395C2.02566 36.5116 2.4815 37 3.05468 37H34.485Z" fill="#0761DC"/>
<path d="M34.485 37C37.6854 37.0132 39.4564 31.3433 42.4186 18.5051C42.563 17.8792 42.0873 17.2817 41.445 17.2817H24.4356C23.9776 17.2817 23.5781 17.5928 23.466 18.0369L22.104 23.4313C21.9445 24.063 22.422 24.6761 23.0736 24.6761H29.5439C30.1708 24.6761 30.6431 25.2462 30.5265 25.8621L30.1584 27.8058C30.069 28.2779 29.6564 28.6197 29.1759 28.6197H14.0786C13.4376 28.6197 12.9622 28.0253 13.103 27.4L16.7599 11.1606C16.8626 10.7044 17.2678 10.3803 17.7355 10.3803H77.2386C77.8971 10.3803 78.3759 11.0057 78.2039 11.6414L76.878 16.5428C76.76 16.9789 76.3644 17.2817 75.9127 17.2817H50.2043C49.7441 17.2817 49.3433 17.5958 49.2333 18.0427L44.8715 35.761C44.7164 36.3912 45.1935 37 45.8425 37H52.3541C52.822 37 53.2273 36.6755 53.3298 36.219L55.9663 24.4712C56.0688 24.0146 56.4742 23.6901 56.9421 23.6901H81.4261C81.7292 23.6901 82.0173 23.5529 82.2029 23.3132C85.8041 18.6624 87.2159 13.6479 88.8262 3.14864C88.9189 2.54459 88.4507 2 87.8396 2H11.867C11.5343 2 11.2227 2.16462 11.041 2.4433C8.06969 6.99813 3.24208 16.6291 2.06066 35.9395C2.02566 36.5116 2.4815 37 3.05468 37H34.485Z" stroke="#0547A3"/>
</g>
<path d="M64.2192 33.5H59.193C58.7762 33.5 58.403 33.7586 58.2567 34.1489L57.5067 36.1489C57.2615 36.8026 57.7448 37.5 58.443 37.5H63.7192C64.1781 37.5 64.5781 37.1877 64.6894 36.7425L65.1894 34.7425C65.3472 34.1114 64.8698 33.5 64.2192 33.5Z" fill="#0761DC"/>
<g filter="url(#filter2_f_361_6790)">
<path d="M64.2192 33.5H59.193C58.7762 33.5 58.403 33.7586 58.2567 34.1489L57.5067 36.1489C57.2615 36.8026 57.7448 37.5 58.443 37.5H63.7192C64.1781 37.5 64.5781 37.1877 64.6894 36.7425L65.1894 34.7425C65.3472 34.1114 64.8698 33.5 64.2192 33.5Z" fill="#0761DC"/>
<path d="M64.2192 33.5H59.193C58.7762 33.5 58.403 33.7586 58.2567 34.1489L57.5067 36.1489C57.2615 36.8026 57.7448 37.5 58.443 37.5H63.7192C64.1781 37.5 64.5781 37.1877 64.6894 36.7425L65.1894 34.7425C65.3472 34.1114 64.8698 33.5 64.2192 33.5Z" stroke="#064191"/>
</g>
<path d="M78.2192 33.5H73.193C72.7762 33.5 72.403 33.7586 72.2567 34.1489L71.5067 36.1489C71.2615 36.8026 71.7448 37.5 72.443 37.5H77.7192C78.1781 37.5 78.5781 37.1877 78.6894 36.7425L79.1894 34.7425C79.3472 34.1114 78.8698 33.5 78.2192 33.5Z" fill="#0761DC"/>
<g filter="url(#filter3_f_361_6790)">
<path d="M78.2192 33.5H73.193C72.7762 33.5 72.403 33.7586 72.2567 34.1489L71.5067 36.1489C71.2615 36.8026 71.7448 37.5 72.443 37.5H77.7192C78.1781 37.5 78.5781 37.1877 78.6894 36.7425L79.1894 34.7425C79.3472 34.1114 78.8698 33.5 78.2192 33.5Z" fill="#0761DC"/>
<path d="M78.2192 33.5H73.193C72.7762 33.5 72.403 33.7586 72.2567 34.1489L71.5067 36.1489C71.2615 36.8026 71.7448 37.5 72.443 37.5H77.7192C78.1781 37.5 78.5781 37.1877 78.6894 36.7425L79.1894 34.7425C79.3472 34.1114 78.8698 33.5 78.2192 33.5Z" stroke="#064191"/>
</g>
<path d="M114.1 14.2H119.28L118.12 20H115.76L115.38 18.72H115.3C114.953 19.12 114.54 19.46 114.06 19.74C113.593 20.02 112.98 20.16 112.22 20.16C111.633 20.16 111.067 20.0667 110.52 19.88C109.987 19.68 109.507 19.3733 109.08 18.96C108.667 18.5333 108.333 17.98 108.08 17.3C107.827 16.62 107.7 15.8 107.7 14.84C107.7 13.8 107.86 12.8133 108.18 11.88C108.5 10.9467 108.98 10.1267 109.62 9.42C110.26 8.7 111.06 8.13333 112.02 7.72C112.98 7.30667 114.1 7.1 115.38 7.1C116.367 7.1 117.227 7.21333 117.96 7.44C118.693 7.66667 119.387 7.92 120.04 8.2L119.28 12.08H115.9C115.913 11.9333 115.933 11.76 115.96 11.56C115.987 11.36 116.007 11.1533 116.02 10.94C116.033 10.7133 116.047 10.4933 116.06 10.28C116.073 10.0667 116.08 9.88 116.08 9.72C116.08 9.61333 116.073 9.49333 116.06 9.36C116.047 9.21333 116.013 9.07333 115.96 8.94C115.907 8.80667 115.827 8.7 115.72 8.62C115.613 8.52667 115.46 8.48 115.26 8.48C114.913 8.48 114.593 8.62667 114.3 8.92C114.02 9.2 113.767 9.58 113.54 10.06C113.313 10.5267 113.113 11.06 112.94 11.66C112.78 12.26 112.64 12.8733 112.52 13.5C112.413 14.1133 112.327 14.72 112.26 15.32C112.207 15.9067 112.18 16.42 112.18 16.86C112.18 16.9933 112.187 17.16 112.2 17.36C112.213 17.56 112.253 17.76 112.32 17.96C112.4 18.1467 112.507 18.3133 112.64 18.46C112.787 18.5933 112.993 18.66 113.26 18.66C113.7 18.66 114.127 18.42 114.54 17.94C114.953 17.46 115.267 16.66 115.48 15.54H113.8L114.1 14.2ZM130.912 20H126.232L125.952 16.82H122.252L120.832 20H118.892L124.792 7.3H129.532L130.912 20ZM122.912 15.36H125.812L125.352 9.92L122.912 15.36ZM146.543 20H142.103L143.943 11.36L139.203 20H136.483L135.583 11.06L133.663 20H131.863L134.563 7.3H139.663L140.283 14.46L144.123 7.3H149.263L146.543 20ZM151.438 7.3H159.858L159.538 8.82H155.458L154.618 12.68H158.038L157.718 14.18H154.298L153.378 18.46H157.458L157.158 20H148.738L151.438 7.3Z" fill="white"/>
<path d="M108.42 30.52C108.82 30.52 109.153 30.3533 109.42 30.02C109.7 29.6867 109.927 29.28 110.1 28.8C110.287 28.32 110.42 27.82 110.5 27.3C110.58 26.78 110.62 26.3267 110.62 25.94C110.62 25.58 110.56 25.28 110.44 25.04C110.32 24.7867 110.06 24.66 109.66 24.66H108.76L107.5 30.52H108.42ZM107.22 31.8L106.32 36H102L104.7 23.3H109.32C110.08 23.3 110.773 23.34 111.4 23.42C112.027 23.5 112.567 23.66 113.02 23.9C113.473 24.14 113.827 24.4867 114.08 24.94C114.333 25.38 114.46 25.9733 114.46 26.72C114.46 27.4133 114.347 28.0733 114.12 28.7C113.907 29.3133 113.553 29.8533 113.06 30.32C112.58 30.7733 111.953 31.1333 111.18 31.4C110.407 31.6667 109.467 31.8 108.36 31.8H107.22ZM126.452 26.32C126.452 27.1067 126.232 27.8333 125.792 28.5C125.352 29.1667 124.626 29.6733 123.612 30.02L125.932 36H121.472L119.712 30.46H119.492L118.312 36H113.992L116.692 23.3H121.952C122.566 23.3 123.146 23.34 123.692 23.42C124.239 23.4867 124.712 23.6333 125.112 23.86C125.526 24.0733 125.852 24.38 126.092 24.78C126.332 25.1667 126.452 25.68 126.452 26.32ZM120.692 29.18C121.039 29.18 121.332 29.0667 121.572 28.84C121.826 28.6 122.026 28.3133 122.172 27.98C122.332 27.6467 122.446 27.2933 122.512 26.92C122.579 26.5333 122.612 26.2 122.612 25.92C122.612 25.5733 122.552 25.28 122.432 25.04C122.312 24.7867 122.052 24.66 121.652 24.66H120.752L119.752 29.18H120.692ZM130.968 36H126.648L129.348 23.3H133.688L130.968 36ZM133.172 36L135.872 23.3H141.252C142.079 23.3 142.799 23.3867 143.412 23.56C144.039 23.72 144.552 23.9933 144.952 24.38C145.365 24.7667 145.672 25.2733 145.872 25.9C146.085 26.5267 146.192 27.2933 146.192 28.2C146.192 29.1733 146.065 30.1267 145.812 31.06C145.572 31.9933 145.165 32.8267 144.592 33.56C144.019 34.2933 143.265 34.8867 142.332 35.34C141.412 35.78 140.272 36 138.912 36H133.172ZM138.652 34.6C139.092 34.6 139.479 34.42 139.812 34.06C140.159 33.6867 140.452 33.22 140.692 32.66C140.945 32.0867 141.152 31.46 141.312 30.78C141.485 30.0867 141.619 29.42 141.712 28.78C141.819 28.14 141.892 27.5667 141.932 27.06C141.985 26.5533 142.012 26.1933 142.012 25.98C142.012 25.5667 141.925 25.2467 141.752 25.02C141.592 24.78 141.305 24.66 140.892 24.66H139.932L137.792 34.6H138.652ZM149.114 23.3H157.534L157.214 24.82H153.134L152.294 28.68H155.714L155.394 30.18H151.974L151.054 34.46H155.134L154.834 36H146.414L149.114 23.3Z" fill="white"/>
<defs>
<filter id="filter0_f_361_6790" x="0.558594" y="0.5" width="89.7793" height="38" filterUnits="userSpaceOnUse" color-interpolation-filters="sRGB">
<feFlood flood-opacity="0" result="BackgroundImageFix"/>
<feBlend mode="normal" in="SourceGraphic" in2="BackgroundImageFix" result="shape"/>
<feGaussianBlur stdDeviation="0.5" result="effect1_foregroundBlur_361_6790"/>
</filter>
<filter id="filter1_f_361_6790" x="0.558594" y="0.5" width="89.7793" height="38" filterUnits="userSpaceOnUse" color-interpolation-filters="sRGB">
<feFlood flood-opacity="0" result="BackgroundImageFix"/>
<feBlend mode="normal" in="SourceGraphic" in2="BackgroundImageFix" result="shape"/>
<feGaussianBlur stdDeviation="0.5" result="effect1_foregroundBlur_361_6790"/>
</filter>
<filter id="filter2_f_361_6790" x="55.9414" y="32" width="10.7793" height="7" filterUnits="userSpaceOnUse" color-interpolation-filters="sRGB">
<feFlood flood-opacity="0" result="BackgroundImageFix"/>
<feBlend mode="normal" in="SourceGraphic" in2="BackgroundImageFix" result="shape"/>
<feGaussianBlur stdDeviation="0.5" result="effect1_foregroundBlur_361_6790"/>
</filter>
<filter id="filter3_f_361_6790" x="69.9414" y="32" width="10.7793" height="7" filterUnits="userSpaceOnUse" color-interpolation-filters="sRGB">
<feFlood flood-opacity="0" result="BackgroundImageFix"/>
<feBlend mode="normal" in="SourceGraphic" in2="BackgroundImageFix" result="shape"/>
<feGaussianBlur stdDeviation="0.5" result="effect1_foregroundBlur_361_6790"/>
</filter>
</defs>
</svg>
