<svg width="25" height="24" viewBox="0 0 25 24" fill="none" xmlns="http://www.w3.org/2000/svg">
<g id="remix-icons/outlined/system/thumb-up-line">
<g id="Group">
<path id="Vector" d="M14.8604 7.9999H21.3747C21.9146 7.9999 22.4324 8.21062 22.8142 8.58569C23.196 8.96076 23.4104 9.46947 23.4104 9.9999V12.1039C23.4107 12.3653 23.3588 12.6241 23.2578 12.8659L20.1075 20.3809C20.0306 20.5641 19.9001 20.7208 19.7325 20.831C19.5649 20.9412 19.3677 21 19.166 20.9999H2.03544C1.76548 20.9999 1.50659 20.8945 1.3157 20.707C1.12482 20.5195 1.01758 20.2651 1.01758 19.9999V9.9999C1.01758 9.73469 1.12482 9.48033 1.3157 9.2928C1.50659 9.10526 1.76548 8.9999 2.03544 8.9999H5.57961C5.74257 8.99994 5.90315 8.96155 6.04786 8.88794C6.19257 8.81433 6.31718 8.70766 6.4112 8.5769L11.9616 0.849904C12.0317 0.752217 12.1352 0.682464 12.2532 0.653294C12.3712 0.624124 12.496 0.637467 12.6049 0.690904L14.4513 1.5979C14.9709 1.85307 15.386 2.27522 15.6276 2.79422C15.8693 3.31322 15.9229 3.89783 15.7796 4.4509L14.8604 7.9999ZM7.12472 10.5879V18.9999H18.484L21.3747 12.1039V9.9999H14.8604C14.5504 9.99986 14.2445 9.93024 13.966 9.79636C13.6875 9.66248 13.4438 9.46787 13.2535 9.22739C13.0632 8.98691 12.9314 8.7069 12.868 8.40873C12.8046 8.11056 12.8114 7.80211 12.8878 7.5069L13.807 3.9589C13.8357 3.84823 13.825 3.73122 13.7767 3.62733C13.7284 3.52345 13.6453 3.43895 13.5413 3.3879L12.8685 3.0579L8.07438 9.7299C7.81992 10.0839 7.4942 10.3739 7.12472 10.5879ZM5.08901 10.9999H3.05329V18.9999H5.08901V10.9999Z" fill="#6BE795"/>
</g>
</g>
</svg>
