<svg width="50" height="50" viewBox="0 0 50 50" fill="none" xmlns="http://www.w3.org/2000/svg">
<path d="M14.6844 27.9292L22.0469 35.2958L19.1031 38.2417L22.051 41.1896L19.1052 44.1354L13.949 38.9792L8.05521 44.8729L5.10938 41.9271L11.0031 36.0313L5.84688 30.8771L8.79271 27.9313L11.7385 30.875L14.6823 27.9292H14.6844ZM6.24687 6.25L13.6344 6.25625L38.2531 30.8771L41.201 27.9313L44.1469 30.8771L38.9927 36.0333L44.8844 41.9271L41.9385 44.8729L36.0448 38.9792L30.8885 44.1354L27.9427 41.1896L30.8885 38.2417L6.25313 13.6063L6.24687 6.25ZM36.3656 6.25L43.7469 6.25625L43.751 13.5958L35.3073 22.0375L27.9406 14.6729L36.3656 6.25Z" fill="#FFBB3D"/>
</svg>
