<svg width="50" height="66" viewBox="0 0 50 66" fill="none" xmlns="http://www.w3.org/2000/svg">
<path d="M25.0568 15.1875L21.2443 16.575V23.9583H17.0776V13.6458H17.1089L28.0839 9.65C28.5922 9.45625 29.1464 9.35833 29.713 9.37708C30.8453 9.40532 31.9407 9.78564 32.8469 10.4652C33.753 11.1447 34.425 12.0897 34.7693 13.1688C35.1568 14.3833 35.5109 15.2042 35.8318 15.6313C36.8014 16.9242 38.059 17.9734 39.5048 18.6956C40.9506 19.4178 42.5448 19.793 44.1609 19.7917V23.9583C42.0095 23.9607 39.8842 23.486 37.9382 22.5685C35.9922 21.6509 34.2738 20.3134 32.9068 18.6521L31.6964 25.5208L35.8276 29.5208V44.7917H31.6609V32.3208L27.3901 28.1813L25.4172 37.1354L11.0547 34.6042L11.7797 30.5L22.038 32.3083L25.0568 15.1875ZM32.7026 8.33333C31.5975 8.33333 30.5377 7.89435 29.7563 7.11295C28.9749 6.33154 28.5359 5.27174 28.5359 4.16667C28.5359 3.0616 28.9749 2.00179 29.7563 1.22039C30.5377 0.438987 31.5975 0 32.7026 0C33.8077 0 34.8675 0.438987 35.6489 1.22039C36.4303 2.00179 36.8693 3.0616 36.8693 4.16667C36.8693 5.27174 36.4303 6.33154 35.6489 7.11295C34.8675 7.89435 33.8077 8.33333 32.7026 8.33333Z" fill="#FFBB3D"/>
</svg>
