<svg width="24" height="25" viewBox="0 0 24 25" fill="none" xmlns="http://www.w3.org/2000/svg">
<path d="M16.5 2.5C17.9587 2.5 19.3576 3.07946 20.3891 4.11091C21.4205 5.14236 22 6.54131 22 8V10.5C22 11.388 21.614 12.186 21 12.735V17.5C21 18.1204 20.8076 18.7256 20.4495 19.2323C20.0913 19.7389 19.5849 20.122 19 20.329V21.5C19 21.7652 18.8946 22.0196 18.7071 22.2071C18.5196 22.3946 18.2652 22.5 18 22.5H6C5.73478 22.5 5.48043 22.3946 5.29289 22.2071C5.10536 22.0196 5 21.7652 5 21.5V20.33C4.41493 20.123 3.90842 19.7397 3.55024 19.2329C3.19206 18.726 2.99982 18.1206 3 17.5V6.5C3 5.43913 3.42143 4.42172 4.17157 3.67157C4.92172 2.92143 5.93913 2.5 7 2.5H16.5ZM9.5 11.5H5V17.5C5.00003 17.7449 5.08996 17.9813 5.25272 18.1644C5.41547 18.3474 5.63975 18.4643 5.883 18.493L6 18.5H18C18.2449 18.5 18.4813 18.41 18.6644 18.2473C18.8474 18.0845 18.9643 17.8603 18.993 17.617L19 17.5V13.5H12.964C12.8438 14.333 12.4274 15.0947 11.7912 15.6457C11.155 16.1967 10.3416 16.5 9.5 16.5H6V14.5H9.5C9.87288 14.5 10.2324 14.3611 10.5084 14.1104C10.7844 13.8597 10.9572 13.5152 10.993 13.144L11 13C11 12.6271 10.8611 12.2676 10.6104 11.9916C10.3597 11.7156 10.0152 11.5428 9.644 11.507L9.5 11.5ZM16.5 4.5H7C6.49542 4.49984 6.00943 4.69041 5.63945 5.0335C5.26947 5.37659 5.04284 5.84684 5.005 6.35L5 6.5V9.5H9.5C10.1624 9.49986 10.8113 9.68773 11.3712 10.0418C11.9312 10.3958 12.3791 10.9015 12.663 11.5H19C19.2449 11.5 19.4813 11.41 19.6644 11.2473C19.8474 11.0845 19.9643 10.8603 19.993 10.617L20 10.5V8C20.0001 7.10493 19.6572 6.24385 19.0419 5.59379C18.4267 4.94373 17.5857 4.5541 16.692 4.505L16.5 4.5Z" fill="white"/>
</svg>
