<svg width="24" height="25" viewBox="0 0 24 25" fill="none" xmlns="http://www.w3.org/2000/svg">
<path d="M20 17.5H22V19.5H2V17.5H4V10.5C4 8.37827 4.84285 6.34344 6.34315 4.84315C7.84344 3.34285 9.87827 2.5 12 2.5C14.1217 2.5 16.1566 3.34285 17.6569 4.84315C19.1571 6.34344 20 8.37827 20 10.5V17.5ZM18 17.5V10.5C18 8.9087 17.3679 7.38258 16.2426 6.25736C15.1174 5.13214 13.5913 4.5 12 4.5C10.4087 4.5 8.88258 5.13214 7.75736 6.25736C6.63214 7.38258 6 8.9087 6 10.5V17.5H18ZM9 21.5H15V23.5H9V21.5Z" fill="white"/>
</svg>
