<svg width="13" height="13" viewBox="0 0 13 13" fill="none" xmlns="http://www.w3.org/2000/svg">
<path d="M9.91008 0.875L12.1245 0.876875L12.1257 3.07875L8.70883 6.495L10.4763 8.26313L11.3607 7.37937L12.2445 8.26313L10.6982 9.81L12.4657 11.5781L11.582 12.4619L9.81383 10.6937L8.26695 12.2406L7.3832 11.3569L8.26695 10.4725L6.49883 8.705L4.73133 10.4725L5.6157 11.3569L4.73195 12.2406L3.18508 10.6937L1.41695 12.4619L0.533203 11.5781L2.30133 9.80938L0.754453 8.26313L1.6382 7.37937L2.52195 8.2625L4.28883 6.495L0.876328 3.0825L0.874453 0.875L3.0907 0.876875L6.49883 4.28562L9.91008 0.875ZM5.17258 7.37875L3.4057 9.14625L3.8482 9.58812L5.61508 7.82062L5.1732 7.37875H5.17258ZM10.8751 2.12562H10.427L7.3832 5.16875L7.82445 5.61062L10.8751 2.56125V2.12562V2.12562ZM2.12508 2.12562V2.56313L9.1507 9.58875L9.59258 9.14688L2.57195 2.12625L2.12508 2.12562V2.12562Z" fill="white"/>
</svg>
