<svg width="13" height="13" viewBox="0 0 13 13" fill="none" xmlns="http://www.w3.org/2000/svg">
<path d="M6.5 5.875C7.3288 5.875 8.12366 6.20424 8.70971 6.79029C9.29576 7.37634 9.625 8.1712 9.625 9V12.75H8.375V9C8.37503 8.52174 8.1923 8.06155 7.8642 7.71359C7.5361 7.36562 7.08743 7.15618 6.61 7.12813L6.5 7.125C6.02174 7.12497 5.56155 7.3077 5.21359 7.6358C4.86562 7.9639 4.65618 8.41257 4.62813 8.89L4.625 9V12.75H3.375V9C3.375 8.1712 3.70424 7.37634 4.29029 6.79029C4.87634 6.20424 5.6712 5.875 6.5 5.875ZM2.4375 7.75C2.61188 7.75 2.78125 7.77063 2.94375 7.80875C2.83689 8.12688 2.77361 8.45801 2.75563 8.79313L2.75 9V9.05375C2.67816 9.02804 2.60343 9.01125 2.5275 9.00375L2.4375 9C2.20445 9.00001 1.97976 9.08683 1.80724 9.24351C1.63472 9.4002 1.52675 9.61553 1.50438 9.8475L1.5 9.9375V12.75H0.25V9.9375C0.25 9.35734 0.480468 8.80094 0.890704 8.3907C1.30094 7.98047 1.85734 7.75 2.4375 7.75V7.75ZM10.5625 7.75C11.1427 7.75 11.6991 7.98047 12.1093 8.3907C12.5195 8.80094 12.75 9.35734 12.75 9.9375V12.75H11.5V9.9375C11.5 9.70445 11.4132 9.47976 11.2565 9.30724C11.0998 9.13472 10.8845 9.02675 10.6525 9.00438L10.5625 9C10.4531 9 10.3481 9.01875 10.25 9.05313V9C10.25 8.58375 10.1825 8.18375 10.0569 7.81C10.2188 7.77063 10.3881 7.75 10.5625 7.75ZM2.4375 4C2.8519 4 3.24933 4.16462 3.54235 4.45765C3.83538 4.75067 4 5.1481 4 5.5625C4 5.9769 3.83538 6.37433 3.54235 6.66735C3.24933 6.96038 2.8519 7.125 2.4375 7.125C2.0231 7.125 1.62567 6.96038 1.33265 6.66735C1.03962 6.37433 0.875 5.9769 0.875 5.5625C0.875 5.1481 1.03962 4.75067 1.33265 4.45765C1.62567 4.16462 2.0231 4 2.4375 4V4ZM10.5625 4C10.9769 4 11.3743 4.16462 11.6674 4.45765C11.9604 4.75067 12.125 5.1481 12.125 5.5625C12.125 5.9769 11.9604 6.37433 11.6674 6.66735C11.3743 6.96038 10.9769 7.125 10.5625 7.125C10.1481 7.125 9.75067 6.96038 9.45765 6.66735C9.16462 6.37433 9 5.9769 9 5.5625C9 5.1481 9.16462 4.75067 9.45765 4.45765C9.75067 4.16462 10.1481 4 10.5625 4V4ZM2.4375 5.25C2.35462 5.25 2.27513 5.28292 2.21653 5.34153C2.15792 5.40013 2.125 5.47962 2.125 5.5625C2.125 5.64538 2.15792 5.72487 2.21653 5.78347C2.27513 5.84208 2.35462 5.875 2.4375 5.875C2.52038 5.875 2.59987 5.84208 2.65847 5.78347C2.71708 5.72487 2.75 5.64538 2.75 5.5625C2.75 5.47962 2.71708 5.40013 2.65847 5.34153C2.59987 5.28292 2.52038 5.25 2.4375 5.25ZM10.5625 5.25C10.4796 5.25 10.4001 5.28292 10.3415 5.34153C10.2829 5.40013 10.25 5.47962 10.25 5.5625C10.25 5.64538 10.2829 5.72487 10.3415 5.78347C10.4001 5.84208 10.4796 5.875 10.5625 5.875C10.6454 5.875 10.7249 5.84208 10.7835 5.78347C10.8421 5.72487 10.875 5.64538 10.875 5.5625C10.875 5.47962 10.8421 5.40013 10.7835 5.34153C10.7249 5.28292 10.6454 5.25 10.5625 5.25ZM6.5 0.25C7.16304 0.25 7.79893 0.513392 8.26777 0.982233C8.73661 1.45107 9 2.08696 9 2.75C9 3.41304 8.73661 4.04893 8.26777 4.51777C7.79893 4.98661 7.16304 5.25 6.5 5.25C5.83696 5.25 5.20107 4.98661 4.73223 4.51777C4.26339 4.04893 4 3.41304 4 2.75C4 2.08696 4.26339 1.45107 4.73223 0.982233C5.20107 0.513392 5.83696 0.25 6.5 0.25V0.25ZM6.5 1.5C6.16848 1.5 5.85054 1.6317 5.61612 1.86612C5.3817 2.10054 5.25 2.41848 5.25 2.75C5.25 3.08152 5.3817 3.39946 5.61612 3.63388C5.85054 3.8683 6.16848 4 6.5 4C6.83152 4 7.14946 3.8683 7.38388 3.63388C7.6183 3.39946 7.75 3.08152 7.75 2.75C7.75 2.41848 7.6183 2.10054 7.38388 1.86612C7.14946 1.6317 6.83152 1.5 6.5 1.5V1.5Z" fill="white"/>
</svg>
