<svg width="15" height="11" viewBox="0 0 15 11" fill="none" xmlns="http://www.w3.org/2000/svg">
<path d="M7.5 0.5C11.2969 0.5 14.375 2.17875 14.375 4.25V6.75C14.375 8.82125 11.2969 10.5 7.5 10.5C3.77062 10.5 0.735 8.88062 0.628125 6.86062L0.625 6.75V4.25C0.625 2.17875 3.70312 0.5 7.5 0.5ZM7.5 8C5.175 8 3.11875 7.37062 1.875 6.40625V6.75C1.875 7.92625 4.30187 9.25 7.5 9.25C10.6312 9.25 13.0237 7.98125 13.1219 6.82375L13.125 6.75L13.1256 6.40625C11.8819 7.37 9.82562 8 7.5 8ZM7.5 1.75C4.30187 1.75 1.875 3.07375 1.875 4.25C1.875 5.42625 4.30187 6.75 7.5 6.75C10.6981 6.75 13.125 5.42625 13.125 4.25C13.125 3.07375 10.6981 1.75 7.5 1.75Z" fill="white"/>
</svg>
