<svg width="20" height="20" viewBox="0 0 20 20" fill="none" xmlns="http://www.w3.org/2000/svg">
<path d="M5.25301 16.4938L5.97701 16.9168C7.19795 17.6288 8.5866 18.0027 10 17.9998C11.5823 17.9998 13.129 17.5306 14.4446 16.6515C15.7602 15.7725 16.7855 14.523 17.3911 13.0612C17.9966 11.5994 18.155 9.99088 17.8463 8.43903C17.5376 6.88719 16.7757 5.46172 15.6569 4.3429C14.538 3.22408 13.1126 2.46216 11.5607 2.15347C10.0089 1.84479 8.40036 2.00322 6.93855 2.60872C5.47674 3.21422 4.22731 4.2396 3.34826 5.55519C2.46921 6.87079 2.00001 8.41751 2.00001 9.99976C2.00001 11.4358 2.37701 12.8128 3.08401 14.0238L3.50601 14.7478L2.85301 17.1488L5.25301 16.4938ZM0.00401338 19.9998L1.35601 15.0318C0.465151 13.5046 -0.00289063 11.7677 1.34322e-05 9.99976C1.34322e-05 4.47676 4.47701 -0.000244141 10 -0.000244141C15.523 -0.000244141 20 4.47676 20 9.99976C20 15.5228 15.523 19.9998 10 19.9998C8.23279 20.0026 6.49667 19.5349 4.97001 18.6448L0.00401338 19.9998ZM6.39101 5.30776C6.52501 5.29776 6.66001 5.29776 6.79401 5.30376C6.84801 5.30776 6.90201 5.31376 6.95601 5.31976C7.11501 5.33776 7.29001 5.43476 7.34901 5.56876C7.64701 6.24476 7.93701 6.92576 8.21701 7.60876C8.27901 7.76076 8.24201 7.95576 8.12401 8.14576C8.04286 8.27423 7.95507 8.3984 7.86101 8.51776C7.74801 8.66276 7.50501 8.92876 7.50501 8.92876C7.50501 8.92876 7.40601 9.04676 7.44401 9.19376C7.45801 9.24976 7.50401 9.33076 7.54601 9.39876L7.60501 9.49376C7.86101 9.92076 8.20501 10.3538 8.62501 10.7618C8.74501 10.8778 8.86201 10.9968 8.98801 11.1078C9.45601 11.5208 9.98601 11.8578 10.558 12.1078L10.563 12.1098C10.648 12.1468 10.691 12.1668 10.815 12.2198C10.877 12.2458 10.941 12.2688 11.006 12.2858C11.0732 12.3029 11.1439 12.2996 11.2093 12.2765C11.2746 12.2534 11.3316 12.2113 11.373 12.1558C12.097 11.2788 12.163 11.2218 12.169 11.2218V11.2238C12.2193 11.1768 12.2791 11.1412 12.3443 11.1193C12.4095 11.0974 12.4786 11.0897 12.547 11.0968C12.607 11.1008 12.668 11.1118 12.724 11.1368C13.255 11.3798 14.124 11.7588 14.124 11.7588L14.706 12.0198C14.804 12.0668 14.893 12.1778 14.896 12.2848C14.9 12.3518 14.906 12.4598 14.883 12.6578C14.851 12.9168 14.773 13.2278 14.695 13.3908C14.6416 13.502 14.5707 13.604 14.485 13.6928C14.3841 13.7987 14.2736 13.8951 14.155 13.9808C14.114 14.0116 14.0723 14.0416 14.03 14.0708C13.9056 14.1497 13.7778 14.2231 13.647 14.2908C13.3895 14.4275 13.1052 14.506 12.814 14.5208C12.629 14.5308 12.444 14.5448 12.258 14.5348C12.25 14.5348 11.69 14.4478 11.69 14.4478C10.2683 14.0738 8.9534 13.3732 7.85001 12.4018C7.62401 12.2028 7.41501 11.9888 7.20101 11.7758C6.31101 10.8908 5.63901 9.93576 5.23101 9.03376C5.02218 8.59104 4.90938 8.10916 4.90001 7.61976C4.89589 7.01261 5.09436 6.42142 5.46401 5.93976C5.53701 5.84576 5.60601 5.74776 5.72501 5.63476C5.85201 5.51476 5.93201 5.45076 6.01901 5.40676C6.13469 5.34879 6.26088 5.31477 6.39001 5.30676L6.39101 5.30776Z" fill="#9D9D9D"/>
</svg>
