<svg width="18" height="18" viewBox="0 0 18 18" fill="none" xmlns="http://www.w3.org/2000/svg">
<path d="M6.366 7.68176C7.30434 9.33023 8.66952 10.6954 10.318 11.6338L11.202 10.3958C11.3442 10.1967 11.5543 10.0566 11.7928 10.0021C12.0313 9.94754 12.2814 9.98229 12.496 10.0998C13.9103 10.8727 15.4722 11.3375 17.079 11.4638C17.3298 11.4836 17.5638 11.5973 17.7345 11.7821C17.9052 11.9669 18 12.2092 18 12.4608V16.9228C18.0001 17.1704 17.9083 17.4092 17.7424 17.593C17.5765 17.7768 17.3483 17.8925 17.102 17.9178C16.572 17.9728 16.038 17.9998 15.5 17.9998C6.94 17.9998 0 11.0598 0 2.49976C0 1.96176 0.027 1.42776 0.082 0.897756C0.107255 0.651453 0.222984 0.423277 0.40679 0.25739C0.590595 0.0915031 0.829406 -0.000297498 1.077 -0.000244117H5.539C5.79056 -0.000275659 6.0329 0.0945074 6.21768 0.265207C6.40247 0.435906 6.51613 0.669979 6.536 0.920756C6.66222 2.52755 7.12708 4.08944 7.9 5.50376C8.01746 5.71832 8.05221 5.9685 7.99767 6.20695C7.94312 6.44541 7.80306 6.6556 7.604 6.79776L6.366 7.68176ZM3.844 7.02476L5.744 5.66776C5.20478 4.50385 4.83535 3.2686 4.647 1.99976H2.01C2.004 2.16576 2.001 2.33276 2.001 2.49976C2 9.95576 8.044 15.9998 15.5 15.9998C15.667 15.9998 15.834 15.9968 16 15.9898V13.3528C14.7312 13.1644 13.4959 12.795 12.332 12.2558L10.975 14.1558C10.4287 13.9435 9.89801 13.6928 9.387 13.4058L9.329 13.3728C7.36758 12.2565 5.74328 10.6322 4.627 8.67076L4.594 8.61276C4.30691 8.10175 4.05628 7.57109 3.844 7.02476Z" fill="#9D9D9D"/>
</svg>
