<svg width="20" height="20" viewBox="0 0 20 20" fill="none" xmlns="http://www.w3.org/2000/svg">
<path d="M10 17.9998C12.1217 17.9998 14.1566 17.1569 15.6569 15.6566C17.1571 14.1563 18 12.1215 18 9.99976C18 7.87802 17.1571 5.84319 15.6569 4.3429C14.1566 2.84261 12.1217 1.99976 10 1.99976C7.87827 1.99976 5.84344 2.84261 4.34315 4.3429C2.84285 5.84319 2 7.87802 2 9.99976C2 12.1215 2.84285 14.1563 4.34315 15.6566C5.84344 17.1569 7.87827 17.9998 10 17.9998ZM10 19.9998C4.477 19.9998 0 15.5228 0 9.99976C0 4.47676 4.477 -0.000244141 10 -0.000244141C15.523 -0.000244141 20 4.47676 20 9.99976C20 15.5228 15.523 19.9998 10 19.9998ZM6.89 11.1698L4.392 10.3908C3.852 10.2258 3.849 9.85376 4.513 9.58676L14.246 5.82676C14.811 5.59676 15.131 5.88776 14.948 6.61676L13.291 14.4368C13.175 14.9938 12.84 15.1268 12.375 14.8698L9.824 12.9818L8.635 14.1298C8.513 14.2478 8.414 14.3488 8.226 14.3738C8.039 14.3998 7.885 14.3438 7.772 14.0338L6.902 11.1628L6.89 11.1708V11.1698Z" fill="#9D9D9D"/>
</svg>
