<svg width="24" height="25" viewBox="0 0 24 25" fill="none" xmlns="http://www.w3.org/2000/svg">
<path d="M12 22.5C6.477 22.5 2 18.023 2 12.5C2 6.977 6.477 2.5 12 2.5C17.523 2.5 22 6.977 22 12.5C22 18.023 17.523 22.5 12 22.5ZM12 20.5C14.1217 20.5 16.1566 19.6571 17.6569 18.1569C19.1571 16.6566 20 14.6217 20 12.5C20 10.3783 19.1571 8.34344 17.6569 6.84315C16.1566 5.34285 14.1217 4.5 12 4.5C9.87827 4.5 7.84344 5.34285 6.34315 6.84315C4.84285 8.34344 4 10.3783 4 12.5C4 14.6217 4.84285 16.6566 6.34315 18.1569C7.84344 19.6571 9.87827 20.5 12 20.5ZM11 15.5H13V17.5H11V15.5ZM13 13.855V14.5H11V13C11 12.7348 11.1054 12.4804 11.2929 12.2929C11.4804 12.1054 11.7348 12 12 12C12.2841 12 12.5623 11.9193 12.8023 11.7673C13.0423 11.6154 13.2343 11.3984 13.3558 11.1416C13.4773 10.8848 13.5234 10.5988 13.4887 10.3168C13.454 10.0349 13.34 9.76858 13.1598 9.54891C12.9797 9.32924 12.7409 9.16523 12.4712 9.07597C12.2015 8.98671 11.912 8.97587 11.6364 9.04471C11.3608 9.11354 11.1104 9.25923 10.9144 9.46482C10.7183 9.6704 10.5847 9.92743 10.529 10.206L8.567 9.813C8.68863 9.20508 8.96951 8.64037 9.38092 8.17659C9.79233 7.7128 10.3195 7.36658 10.9086 7.17332C11.4977 6.98006 12.1275 6.94669 12.7337 7.07661C13.3399 7.20654 13.9007 7.49511 14.3588 7.91282C14.8169 8.33054 15.1559 8.86241 15.3411 9.45406C15.5263 10.0457 15.5511 10.6759 15.4129 11.2803C15.2747 11.8847 14.9785 12.4415 14.5545 12.8939C14.1306 13.3462 13.5941 13.6779 13 13.855Z" fill="white"/>
</svg>
