<svg width="24" height="25" viewBox="0 0 24 25" fill="none" xmlns="http://www.w3.org/2000/svg">
<path d="M4 2.5H20C20.2652 2.5 20.5196 2.60536 20.7071 2.79289C20.8946 2.98043 21 3.23478 21 3.5V22.776C21.0001 22.8594 20.9793 22.9416 20.9395 23.0149C20.8997 23.0882 20.8422 23.1505 20.7722 23.1959C20.7023 23.2413 20.622 23.2685 20.5388 23.275C20.4557 23.2815 20.3722 23.267 20.296 23.233L12 19.53L3.704 23.232C3.6279 23.266 3.54451 23.2804 3.46141 23.274C3.37831 23.2676 3.29813 23.2405 3.22818 23.1952C3.15822 23.1499 3.1007 23.0878 3.06085 23.0146C3.021 22.9414 3.00008 22.8593 3 22.776V3.5C3 3.23478 3.10536 2.98043 3.29289 2.79289C3.48043 2.60536 3.73478 2.5 4 2.5ZM19 20.465V4.5H5V20.465L12 17.341L19 20.465ZM12 14L9.061 15.545L9.622 12.273L7.245 9.955L10.531 9.477L12 6.5L13.47 9.477L16.755 9.955L14.378 12.273L14.938 15.545L12 14Z" fill="white"/>
</svg>
