<svg width="20" height="19" viewBox="0 0 20 19" fill="none" xmlns="http://www.w3.org/2000/svg">
<path d="M15.4571 -0.000244141L19.0001 0.00275588L19.0021 3.52576L13.5351 8.99176L16.3631 11.8208L17.7781 10.4068L19.1921 11.8208L16.7181 14.2958L19.5461 17.1248L18.1321 18.5388L15.3031 15.7098L12.8281 18.1848L11.4141 16.7708L12.8281 15.3558L9.9991 12.5278L7.1711 15.3558L8.5861 16.7708L7.1721 18.1848L4.6971 15.7098L1.8681 18.5388L0.454102 17.1248L3.2831 14.2948L0.808102 11.8208L2.2221 10.4068L3.6361 11.8198L6.4631 8.99176L1.0031 3.53176L1.0001 -0.000244141L4.5461 0.00275588L9.9991 5.45676L15.4571 -0.000244141ZM7.8771 10.4058L5.0501 13.2338L5.7581 13.9408L8.5851 11.1128L7.8781 10.4058H7.8771ZM17.0011 2.00076H16.2841L11.4141 6.86976L12.1201 7.57676L17.0011 2.69776V2.00076ZM3.0011 2.00076V2.70076L14.2421 13.9418L14.9491 13.2348L3.7161 2.00176L3.0011 2.00076Z" fill="white"/>
</svg>
