<svg width="24" height="25" viewBox="0 0 24 25" fill="none" xmlns="http://www.w3.org/2000/svg">
<g clip-path="url(#clip0_331_7547)">
<path d="M17.4571 3.5L21.0001 3.503L21.0021 7.026L15.5351 12.492L18.3631 15.321L19.7781 13.907L21.1921 15.321L18.7181 17.796L21.5461 20.625L20.1321 22.039L17.3031 19.21L14.8281 21.685L13.4141 20.271L14.8281 18.856L11.9991 16.028L9.1711 18.856L10.5861 20.271L9.1721 21.685L6.6971 19.21L3.8681 22.039L2.4541 20.625L5.2831 17.795L2.8081 15.321L4.2221 13.907L5.6361 15.32L8.4631 12.492L3.0031 7.032L3.0001 3.5L6.5461 3.503L11.9991 8.957L17.4571 3.5ZM9.8771 13.906L7.0501 16.734L7.7581 17.441L10.5851 14.613L9.8781 13.906H9.8771ZM19.0011 5.501H18.2841L13.4141 10.37L14.1201 11.077L19.0011 6.198V5.501ZM5.0011 5.501V6.201L16.2421 17.442L16.9491 16.735L5.7161 5.502L5.0011 5.501Z" fill="white"/>
</g>
<defs>
<clipPath id="clip0_331_7547">
<rect width="24" height="24" fill="white" transform="translate(0 0.5)"/>
</clipPath>
</defs>
</svg>
