<svg width="25" height="24" viewBox="0 0 25 24" fill="none" xmlns="http://www.w3.org/2000/svg">
<g clip-path="url(#clip0_225_898)">
<path d="M10.1861 16H3.78613C3.2557 16 2.74699 15.7893 2.37192 15.4142C1.99685 15.0391 1.78613 14.5304 1.78613 14V11.896C1.78586 11.6346 1.83682 11.3758 1.93613 11.134L5.03213 3.62C5.10741 3.43675 5.23543 3.28 5.39993 3.16961C5.56444 3.05923 5.75803 3.0002 5.95613 3H22.7861C23.0514 3 23.3057 3.10536 23.4932 3.29289C23.6808 3.48043 23.7861 3.73478 23.7861 4V14C23.7861 14.2652 23.6808 14.5196 23.4932 14.7071C23.3057 14.8946 23.0514 15 22.7861 15H19.3041C19.144 15 18.9863 15.0384 18.8441 15.112C18.7019 15.1856 18.5795 15.2922 18.4871 15.423L13.0341 23.149C12.9652 23.2467 12.8635 23.3164 12.7476 23.3456C12.6316 23.3748 12.5091 23.3614 12.4021 23.308L10.5881 22.4C10.0776 22.1448 9.6698 21.7227 9.4324 21.2037C9.195 20.6847 9.14233 20.1001 9.28313 19.547L10.1861 16ZM17.7861 13.412V5H6.62613L3.78613 11.896V14H10.1861C10.4907 14 10.7913 14.0697 11.0649 14.2035C11.3385 14.3374 11.5779 14.532 11.7649 14.7725C11.9518 15.013 12.0814 15.293 12.1436 15.5912C12.2059 15.8893 12.1992 16.1978 12.1241 16.493L11.2211 20.041C11.1929 20.1517 11.2034 20.2687 11.2508 20.3726C11.2983 20.4765 11.38 20.561 11.4821 20.612L12.1431 20.942L16.8531 14.27C17.1031 13.916 17.4231 13.626 17.7861 13.412V13.412ZM19.7861 13H21.7861V5H19.7861V13Z" fill="#6A6E77"/>
</g>
<defs>
<clipPath id="clip0_225_898">
<rect width="24" height="24" fill="white" transform="translate(0.786133)"/>
</clipPath>
</defs>
</svg>
