<svg width="23" height="21" viewBox="0 0 23 21" fill="none" xmlns="http://www.w3.org/2000/svg">
<path d="M13.8604 7.99978H20.3747C20.9146 7.99978 21.4324 8.2105 21.8142 8.58557C22.196 8.96064 22.4104 9.46935 22.4104 9.99978V12.1038C22.4107 12.3651 22.3588 12.624 22.2578 12.8658L19.1075 20.3808C19.0306 20.564 18.9001 20.7207 18.7325 20.8309C18.5649 20.9411 18.3677 20.9999 18.166 20.9998H1.03544C0.765483 20.9998 0.506587 20.8944 0.315702 20.7069C0.124816 20.5194 0.0175781 20.265 0.0175781 19.9998V9.99978C0.0175781 9.73456 0.124816 9.48021 0.315702 9.29268C0.506587 9.10514 0.765483 8.99978 1.03544 8.99978H4.57961C4.74257 8.99982 4.90315 8.96142 5.04786 8.88782C5.19257 8.81421 5.31718 8.70754 5.4112 8.57678L10.9616 0.849782C11.0317 0.752094 11.1352 0.682342 11.2532 0.653172C11.3712 0.624002 11.496 0.637345 11.6049 0.690782L13.4513 1.59778C13.9709 1.85294 14.386 2.2751 14.6276 2.7941C14.8693 3.3131 14.9229 3.8977 14.7796 4.45078L13.8604 7.99978ZM6.12472 10.5878V18.9998H17.484L20.3747 12.1038V9.99978H13.8604C13.5504 9.99974 13.2445 9.93012 12.966 9.79624C12.6875 9.66236 12.4438 9.46775 12.2535 9.22727C12.0632 8.98678 11.9314 8.70677 11.868 8.40861C11.8046 8.11044 11.8114 7.80198 11.8878 7.50678L12.807 3.95878C12.8357 3.84811 12.825 3.7311 12.7767 3.62721C12.7284 3.52332 12.6453 3.43883 12.5413 3.38778L11.8685 3.05778L7.07438 9.72978C6.81992 10.0838 6.4942 10.3738 6.12472 10.5878ZM4.08901 10.9998H2.05329V18.9998H4.08901V10.9998Z" fill="#6BE795"/>
</svg>
