<svg width="23" height="21" viewBox="0 0 23 21" fill="none" xmlns="http://www.w3.org/2000/svg">
<path d="M9.18613 12.9998H2.78613C2.2557 12.9998 1.74699 12.789 1.37192 12.414C0.996848 12.0389 0.786134 11.5302 0.786134 10.9998V8.89576C0.785864 8.63439 0.836825 8.37551 0.936134 8.13376L4.03213 0.619756C4.10741 0.436509 4.23543 0.279751 4.39993 0.169368C4.56444 0.0589851 4.75803 -4.86704e-05 4.95613 -0.000244141H21.7861C22.0514 -0.000244141 22.3057 0.105113 22.4932 0.292649C22.6808 0.480185 22.7861 0.734539 22.7861 0.999756V10.9998C22.7861 11.265 22.6808 11.5193 22.4932 11.7069C22.3057 11.8944 22.0514 11.9998 21.7861 11.9998H18.3041C18.144 11.9997 17.9863 12.0381 17.8441 12.1117C17.7019 12.1853 17.5795 12.292 17.4871 12.4228L12.0341 20.1488C11.9652 20.2464 11.8635 20.3162 11.7476 20.3454C11.6316 20.3745 11.5091 20.3612 11.4021 20.3078L9.58813 19.3998C9.07763 19.1446 8.6698 18.7224 8.4324 18.2034C8.195 17.6844 8.14233 17.0998 8.28313 16.5468L9.18613 12.9998ZM16.7861 10.4118V1.99976H5.62613L2.78613 8.89576V10.9998H9.18613C9.49074 10.9998 9.7913 11.0694 10.0649 11.2033C10.3385 11.3372 10.5779 11.5318 10.7649 11.7723C10.9518 12.0128 11.0814 12.2928 11.1436 12.5909C11.2059 12.8891 11.1992 13.1976 11.1241 13.4928L10.2211 17.0408C10.1929 17.1514 10.2034 17.2684 10.2508 17.3723C10.2983 17.4762 10.38 17.5607 10.4821 17.6118L11.1431 17.9418L15.8531 11.2698C16.1031 10.9158 16.4231 10.6258 16.7861 10.4118ZM18.7861 9.99976H20.7861V1.99976H18.7861V9.99976Z" fill="#6A6E77"/>
</svg>
