<svg width="24" height="24" viewBox="0 0 24 24" fill="none" xmlns="http://www.w3.org/2000/svg">
<path d="M12 24C18.6274 24 24 18.6274 24 12C24 5.37258 18.6274 0 12 0C5.37258 0 0 5.37258 0 12C0 18.6274 5.37258 24 12 24Z" fill="#009FF9"/>
<path fill-rule="evenodd" clip-rule="evenodd" d="M11.5471 17.263H12.489C12.489 17.263 12.7735 17.2317 12.9187 17.0752C13.0524 16.9314 13.0482 16.6615 13.0482 16.6615C13.0482 16.6615 13.0298 15.3977 13.6163 15.2116C14.1945 15.0282 14.937 16.433 15.724 16.9731C16.3191 17.3819 16.7713 17.2923 16.7713 17.2923L18.8755 17.263C18.8755 17.263 19.9763 17.1952 19.4544 16.3297C19.4116 16.2589 19.1504 15.6894 17.8898 14.5193C16.5704 13.2947 16.7471 13.4928 18.3365 11.3744C19.3044 10.0843 19.6914 9.2967 19.5705 8.95936C19.4552 8.63807 18.7433 8.72299 18.7433 8.72299L16.3741 8.73775C16.3741 8.73775 16.1984 8.71379 16.0682 8.79166C15.9409 8.86802 15.859 9.046 15.859 9.046C15.859 9.046 15.484 10.0443 14.9838 10.8933C13.9288 12.6848 13.507 12.7794 13.3346 12.6682C12.9335 12.4089 13.0336 11.6266 13.0336 11.0709C13.0336 9.33478 13.2969 8.6109 12.5209 8.42352C12.2633 8.36127 12.0738 8.3202 11.4152 8.31357C10.5698 8.3048 9.85425 8.31613 9.4491 8.51464C9.17957 8.64663 8.97165 8.94075 9.09828 8.95765C9.25487 8.97862 9.60953 9.05327 9.79756 9.30932C10.0404 9.6396 10.0318 10.3814 10.0318 10.3814C10.0318 10.3814 10.1713 12.4252 9.70601 12.6791C9.38664 12.8532 8.94855 12.4977 8.00798 10.8724C7.52604 10.0398 7.16217 9.11958 7.16217 9.11958C7.16217 9.11958 7.09201 8.9476 6.96687 8.85562C6.815 8.74417 6.6028 8.70866 6.6028 8.70866L4.35138 8.72342C4.35138 8.72342 4.0134 8.73283 3.88933 8.87979C3.77895 9.01049 3.88056 9.28087 3.88056 9.28087C3.88056 9.28087 5.64319 13.4047 7.63898 15.4828C9.46899 17.3881 11.5471 17.263 11.5471 17.263Z" fill="white"/>
</svg>
