<svg width="24" height="24" viewBox="0 0 24 24" fill="none" xmlns="http://www.w3.org/2000/svg">
<path d="M24 12C24 5.37258 18.6274 0 12 0C5.37258 0 0 5.37258 0 12C0 18.6274 5.37258 24 12 24C18.6274 24 24 18.6274 24 12Z" fill="url(#paint0_linear_1567_3303)"/>
<path d="M10.0027 12.0307C10.0027 10.9252 10.8984 10.0288 12.0036 10.0288C13.1088 10.0288 14.005 10.9252 14.005 12.0307C14.005 13.1362 13.1088 14.0327 12.0036 14.0327C10.8984 14.0327 10.0027 13.1362 10.0027 12.0307ZM8.92083 12.0307C8.92083 13.7338 10.301 15.1144 12.0036 15.1144C13.7062 15.1144 15.0864 13.7338 15.0864 12.0307C15.0864 10.3276 13.7062 8.94706 12.0036 8.94706C10.301 8.94706 8.92083 10.3276 8.92083 12.0307ZM14.488 8.82478C14.4879 8.96732 14.5301 9.10667 14.6092 9.2252C14.6884 9.34375 14.8009 9.43615 14.9325 9.49075C15.0641 9.54535 15.2089 9.55969 15.3487 9.53193C15.4885 9.50417 15.6168 9.4356 15.7176 9.33484C15.8184 9.23411 15.8871 9.10572 15.915 8.96596C15.9428 8.82617 15.9286 8.68127 15.8741 8.54956C15.8197 8.41787 15.7274 8.30529 15.6089 8.22605C15.4905 8.14682 15.3512 8.10448 15.2087 8.10443H15.2084C15.0174 8.10454 14.8343 8.18045 14.6992 8.31552C14.5641 8.45056 14.4882 8.63375 14.488 8.82478ZM9.57815 16.9189C8.99284 16.8923 8.67468 16.7947 8.46325 16.7123C8.18297 16.6032 7.98298 16.4732 7.7727 16.2631C7.56243 16.0531 7.43227 15.8532 7.32364 15.5729C7.24121 15.3615 7.14373 15.0431 7.11712 14.4576C7.088 13.8246 7.08218 13.6345 7.08218 12.0308C7.08218 10.4271 7.08847 10.2374 7.11712 9.6039C7.14375 9.01841 7.24199 8.7007 7.32364 8.48867C7.43276 8.20831 7.56272 8.00826 7.7727 7.79794C7.98269 7.58759 8.18247 7.45739 8.46325 7.34872C8.67457 7.26628 8.99284 7.16875 9.57815 7.14214C10.211 7.11302 10.4011 7.1072 12.0036 7.1072C13.6061 7.1072 13.7964 7.11352 14.4298 7.14214C15.0151 7.1688 15.3327 7.26704 15.5447 7.34872C15.825 7.45739 16.025 7.58788 16.2352 7.79794C16.4455 8.00797 16.5752 8.20831 16.6843 8.48867C16.7667 8.70007 16.8642 9.01841 16.8908 9.6039C16.9199 10.2374 16.9257 10.4271 16.9257 12.0308C16.9257 13.6345 16.9199 13.8241 16.8908 14.4576C16.8642 15.0431 16.7662 15.3614 16.6843 15.5729C16.5752 15.8532 16.4452 16.0533 16.2352 16.2631C16.0253 16.473 15.825 16.6032 15.5447 16.7123C15.3333 16.7948 15.0151 16.8923 14.4298 16.9189C13.797 16.948 13.6068 16.9539 12.0036 16.9539C10.4004 16.9539 10.2108 16.948 9.57815 16.9189ZM9.52845 6.06177C8.88933 6.09087 8.45259 6.19225 8.0712 6.34069C7.67622 6.49401 7.34183 6.69966 7.00769 7.03337C6.67356 7.36707 6.46848 7.70208 6.31522 8.09717C6.16681 8.47892 6.06548 8.91553 6.03636 9.55484C6.00679 10.1952 6 10.3999 6 12.0307C6 13.6616 6.00679 13.8663 6.03636 14.5066C6.06548 15.1459 6.16681 15.5825 6.31522 15.9643C6.46848 16.3591 6.67362 16.6945 7.00769 17.0281C7.34178 17.3616 7.67622 17.567 8.0712 17.7208C8.45332 17.8692 8.88933 17.9706 9.52845 17.9997C10.1689 18.0288 10.3732 18.0361 12.0036 18.0361C13.634 18.0361 13.8386 18.0293 14.4788 17.9997C15.1179 17.9706 15.5544 17.8692 15.936 17.7208C16.3308 17.567 16.6654 17.3618 16.9995 17.0281C17.3336 16.6944 17.5383 16.3591 17.692 15.9643C17.8404 15.5825 17.9422 15.1459 17.9709 14.5066C17.9999 13.8658 18.0067 13.6616 18.0067 12.0307C18.0067 10.3999 17.9999 10.1952 17.9709 9.55484C17.9417 8.9155 17.8404 8.47868 17.692 8.09717C17.5383 7.70232 17.3331 7.36762 16.9995 7.03337C16.6659 6.69914 16.3308 6.49401 15.9365 6.34069C15.5544 6.19225 15.1179 6.0904 14.4793 6.06177C13.8391 6.03265 13.6345 6.02539 12.0041 6.02539C10.3737 6.02539 10.1689 6.03215 9.52845 6.06177Z" fill="white"/>
<defs>
<linearGradient id="paint0_linear_1567_3303" x1="23.5387" y1="24" x2="-0.46128" y2="5.49889e-08" gradientUnits="userSpaceOnUse">
<stop stop-color="#FBE18A"/>
<stop offset="0.21" stop-color="#FCBB45"/>
<stop offset="0.38" stop-color="#F75274"/>
<stop offset="0.52" stop-color="#D53692"/>
<stop offset="0.74" stop-color="#8F39CE"/>
<stop offset="1" stop-color="#5B4FE9"/>
</linearGradient>
</defs>
</svg>
