<svg width="24" height="24" viewBox="0 0 24 24" fill="none" xmlns="http://www.w3.org/2000/svg">
<path d="M12 24C18.6274 24 24 18.6274 24 12C24 5.37258 18.6274 0 12 0C5.37258 0 0 5.37258 0 12C0 18.6274 5.37258 24 12 24Z" fill="#3C5A99"/>
<path d="M12.932 18.0001V12.5345H14.7742L15.0508 10.3946H12.932V9.03291C12.932 8.41416 13.1031 7.99463 13.9891 7.99463H15.1117V6.08682C14.9172 6.06104 14.2469 6.00244 13.4664 6.00244C11.8375 6.00244 10.7219 6.99619 10.7219 8.82197V10.397H8.88672V12.5368H10.7219V18.0001H12.932Z" fill="white"/>
</svg>
